M48
; DRILL file {KiCad 8.0.1} date 2024-05-30T23:24:17+0200
; FORMAT={-:-/ absolute / inch / decimal}
; #@! TF.CreationDate,2024-05-30T23:24:17+02:00
; #@! TF.GenerationSoftware,Kicad,Pcbnew,8.0.1
; #@! TF.FileFunction,Plated,1,2,PTH
FMAT,2
INCH
; #@! TA.AperFunction,Plated,PTH,ViaDrill
T1C0.0118
; #@! TA.AperFunction,Plated,PTH,ComponentDrill
T2C0.0315
; #@! TA.AperFunction,Plated,PTH,ComponentDrill
T3C0.0327
; #@! TA.AperFunction,Plated,PTH,ComponentDrill
T4C0.0354
; #@! TA.AperFunction,Plated,PTH,ComponentDrill
T5C0.0394
; #@! TA.AperFunction,Plated,PTH,ComponentDrill
T6C0.0433
%
G90
G05
T1
X5.748Y-4.2126
X5.748Y-4.2913
X5.7874Y-4.2126
X5.8661Y-4.0551
X5.8661Y-4.0945
X5.9055Y-4.0551
T2
X4.2882Y-3.622
X4.4488Y-4.1142
X4.4488Y-4.2126
X4.6457Y-4.1142
X4.6457Y-4.2126
X4.6882Y-3.622
X5.3937Y-3.6583
X5.3937Y-4.0583
X5.4331Y-4.2126
X5.5315Y-4.2126
X5.5512Y-3.6583
X5.5512Y-4.0583
X5.7874Y-3.737
X5.7874Y-4.137
T3
X4.9656Y-3.5583
X4.9656Y-3.6583
X4.9656Y-3.7583
X4.9656Y-3.8583
X4.9656Y-3.9583
X4.9656Y-4.0583
X4.9656Y-4.1583
X4.9656Y-4.2583
X4.9656Y-4.3583
X4.9656Y-4.4583
X4.9656Y-4.5583
X4.9656Y-4.6583
X4.9656Y-4.7583
X4.9656Y-4.8583
X5.2756Y-3.5583
X5.2756Y-3.6583
X5.2756Y-3.7583
X5.2756Y-3.8583
X5.2756Y-3.9583
X5.2756Y-4.0583
X5.2756Y-4.1583
X5.2756Y-4.2583
X5.2756Y-4.3583
X5.2756Y-4.4583
X5.2756Y-4.5583
X5.2756Y-4.6583
X5.2756Y-4.7583
X5.2756Y-4.8583
T4
X4.4325Y-3.3858
X4.5325Y-3.3858
T5
X4.2126Y-4.1126
X4.2126Y-4.2126
X4.5719Y-4.4882
X4.5719Y-4.7874
X4.8031Y-3.9764
X6.0286Y-3.5945
X6.0286Y-3.6945
X6.0286Y-3.7945
X6.0286Y-3.8945
X6.0286Y-3.9945
X6.0286Y-4.0945
X6.0286Y-4.1945
X6.0286Y-4.2945
T6
X4.3652Y-3.7697
X4.3652Y-3.9469
X4.6211Y-3.7697
X4.6211Y-3.9469
M30
